<mxfile host="app.diagrams.net" modified="2021-05-24T13:40:34.977Z" agent="5.0 (Windows NT 10.0; Win64; x64) AppleWebKit/537.36 (KHTML, like Gecko) Chrome/90.0.4430.212 Safari/537.36" etag="pCOk3RgkOVNUJieorcet" version="14.7.0" type="github">
  <diagram id="O9GU4tXydPnezKu3mzqy" name="Page-1">
    <mxGraphModel dx="1102" dy="614" grid="1" gridSize="10" guides="1" tooltips="1" connect="1" arrows="1" fold="1" page="1" pageScale="1" pageWidth="850" pageHeight="1100" math="0" shadow="0">
      <root>
        <mxCell id="0" />
        <mxCell id="1" parent="0" />
        <mxCell id="OdJL8Fn2YQhyEXyysnUh-9" style="edgeStyle=orthogonalEdgeStyle;rounded=0;orthogonalLoop=1;jettySize=auto;html=1;" edge="1" parent="1" source="OdJL8Fn2YQhyEXyysnUh-1" target="OdJL8Fn2YQhyEXyysnUh-2">
          <mxGeometry relative="1" as="geometry" />
        </mxCell>
        <mxCell id="OdJL8Fn2YQhyEXyysnUh-1" value="start" style="ellipse;whiteSpace=wrap;html=1;" vertex="1" parent="1">
          <mxGeometry x="380" y="40" width="120" height="80" as="geometry" />
        </mxCell>
        <mxCell id="OdJL8Fn2YQhyEXyysnUh-10" style="edgeStyle=orthogonalEdgeStyle;rounded=0;orthogonalLoop=1;jettySize=auto;html=1;" edge="1" parent="1" source="OdJL8Fn2YQhyEXyysnUh-2" target="OdJL8Fn2YQhyEXyysnUh-3">
          <mxGeometry relative="1" as="geometry" />
        </mxCell>
        <mxCell id="OdJL8Fn2YQhyEXyysnUh-2" value="read a,n" style="shape=parallelogram;perimeter=parallelogramPerimeter;whiteSpace=wrap;html=1;fixedSize=1;" vertex="1" parent="1">
          <mxGeometry x="380" y="200" width="120" height="60" as="geometry" />
        </mxCell>
        <mxCell id="OdJL8Fn2YQhyEXyysnUh-4" style="edgeStyle=orthogonalEdgeStyle;rounded=0;orthogonalLoop=1;jettySize=auto;html=1;" edge="1" parent="1" source="OdJL8Fn2YQhyEXyysnUh-3">
          <mxGeometry relative="1" as="geometry">
            <mxPoint x="610" y="400" as="targetPoint" />
          </mxGeometry>
        </mxCell>
        <mxCell id="OdJL8Fn2YQhyEXyysnUh-5" style="edgeStyle=orthogonalEdgeStyle;rounded=0;orthogonalLoop=1;jettySize=auto;html=1;" edge="1" parent="1" source="OdJL8Fn2YQhyEXyysnUh-3">
          <mxGeometry relative="1" as="geometry">
            <mxPoint x="240" y="400" as="targetPoint" />
          </mxGeometry>
        </mxCell>
        <mxCell id="OdJL8Fn2YQhyEXyysnUh-3" value="a&amp;gt;=1&lt;br&gt;n&amp;gt;=1&lt;br&gt;a=n!" style="rhombus;whiteSpace=wrap;html=1;" vertex="1" parent="1">
          <mxGeometry x="380" y="360" width="80" height="80" as="geometry" />
        </mxCell>
        <mxCell id="OdJL8Fn2YQhyEXyysnUh-6" value="false" style="text;html=1;align=center;verticalAlign=middle;resizable=0;points=[];autosize=1;strokeColor=none;" vertex="1" parent="1">
          <mxGeometry x="260" y="370" width="40" height="20" as="geometry" />
        </mxCell>
        <mxCell id="OdJL8Fn2YQhyEXyysnUh-7" value="true" style="text;html=1;align=center;verticalAlign=middle;resizable=0;points=[];autosize=1;strokeColor=none;" vertex="1" parent="1">
          <mxGeometry x="480" y="370" width="40" height="20" as="geometry" />
        </mxCell>
        <mxCell id="OdJL8Fn2YQhyEXyysnUh-14" style="edgeStyle=orthogonalEdgeStyle;rounded=0;orthogonalLoop=1;jettySize=auto;html=1;entryX=1;entryY=0.625;entryDx=0;entryDy=0;entryPerimeter=0;" edge="1" parent="1" source="OdJL8Fn2YQhyEXyysnUh-8" target="OdJL8Fn2YQhyEXyysnUh-13">
          <mxGeometry relative="1" as="geometry">
            <mxPoint x="600" y="760" as="targetPoint" />
          </mxGeometry>
        </mxCell>
        <mxCell id="OdJL8Fn2YQhyEXyysnUh-8" value="a=n(n-1)(n-2)..." style="shape=parallelogram;perimeter=parallelogramPerimeter;whiteSpace=wrap;html=1;fixedSize=1;" vertex="1" parent="1">
          <mxGeometry x="600" y="380" width="120" height="60" as="geometry" />
        </mxCell>
        <mxCell id="OdJL8Fn2YQhyEXyysnUh-12" style="edgeStyle=orthogonalEdgeStyle;rounded=0;orthogonalLoop=1;jettySize=auto;html=1;" edge="1" parent="1" source="OdJL8Fn2YQhyEXyysnUh-11" target="OdJL8Fn2YQhyEXyysnUh-13">
          <mxGeometry relative="1" as="geometry">
            <mxPoint x="240" y="701" as="targetPoint" />
          </mxGeometry>
        </mxCell>
        <mxCell id="OdJL8Fn2YQhyEXyysnUh-11" value="a&amp;lt;=0&lt;br&gt;n&amp;lt;=0" style="shape=parallelogram;perimeter=parallelogramPerimeter;whiteSpace=wrap;html=1;fixedSize=1;" vertex="1" parent="1">
          <mxGeometry x="120" y="380" width="120" height="60" as="geometry" />
        </mxCell>
        <mxCell id="OdJL8Fn2YQhyEXyysnUh-13" value="end" style="ellipse;whiteSpace=wrap;html=1;" vertex="1" parent="1">
          <mxGeometry x="290" y="700" width="120" height="80" as="geometry" />
        </mxCell>
      </root>
    </mxGraphModel>
  </diagram>
</mxfile>
